<svg xmlns="http://www.w3.org/2000/svg" width="545" height="115.75" viewBox="0 0 545 115.75">
  <defs>
    <style>
      .cls-1 {
        fill: #100f13;
        fill-rule: evenodd;
      }
    </style>
  </defs>
  <path id="Стоимость_абониментов" data-name="Стоимость  абониментов" class="cls-1" d="M287.1,4938.33a17.318,17.318,0,0,0,1.865,11.88,20.7,20.7,0,0,0,9.288,8.4,32.657,32.657,0,0,0,14.491,3.06,39.611,39.611,0,0,0,13.793-2.34,32.089,32.089,0,0,0,10.949-6.63,28,28,0,0,0,6.921-9.99h-15.42a15.685,15.685,0,0,1-6.184,5.64,17.313,17.313,0,0,1-8,1.98,15.748,15.748,0,0,1-6.742-1.41,9.964,9.964,0,0,1-4.579-4.14,9.371,9.371,0,0,1-.9-6.45,12.4,12.4,0,0,1,3.207-6.45,16.905,16.905,0,0,1,6.136-4.17,18.99,18.99,0,0,1,7.124-1.44,14.572,14.572,0,0,1,5,.9,11.9,11.9,0,0,1,4.3,2.67,7.859,7.859,0,0,1,2.295,4.17H346a18.14,18.14,0,0,0-3.328-10.05A19.969,19.969,0,0,0,334,4917.3a33.124,33.124,0,0,0-13.022-2.37,40.564,40.564,0,0,0-15.625,3.03,33.586,33.586,0,0,0-12.215,8.37,23.651,23.651,0,0,0-6.046,12h0Zm63.242-10.56-1.8,10.2h15.12l-3.968,22.5h13.8l3.968-22.5H392.4l1.8-10.2h-43.86Zm69.784-1.38a32.7,32.7,0,0,0-12.138,2.31,28.032,28.032,0,0,0-9.821,6.36,16.939,16.939,0,0,0-4.862,9.03,12.251,12.251,0,0,0,1.687,8.97,17.1,17.1,0,0,0,7.609,6.36,27.007,27.007,0,0,0,11.293,2.31,31.675,31.675,0,0,0,12.073-2.28,25.155,25.155,0,0,0,9.275-6.33,17.868,17.868,0,0,0,4.563-9.03,13.481,13.481,0,0,0-1.338-9.09,15.064,15.064,0,0,0-7.043-6.33,26.163,26.163,0,0,0-11.3-2.28h0Zm-4.719,26.76A9.582,9.582,0,0,1,411,4952.1a7.138,7.138,0,0,1-3.145-3.09,7.5,7.5,0,0,1-.572-4.92,9.854,9.854,0,0,1,2.307-4.92,11.845,11.845,0,0,1,4.235-3.09,12.007,12.007,0,0,1,4.775-1.05,8.888,8.888,0,0,1,4.29,1.02,6.182,6.182,0,0,1,2.786,3.09,8.586,8.586,0,0,1,.387,4.95,10.947,10.947,0,0,1-2.134,4.95,10.3,10.3,0,0,1-3.874,3.09,11.146,11.146,0,0,1-4.65,1.02h0Zm43.475-25.38H445.5l-5.766,32.7h13.38l20.793-18.9-3.333,18.9h13.8l5.766-32.7h-13.8l-20.782,18.84Zm81.54,0-19.444,23.16L509.7,4927.77h-15.78l-5.766,32.7h13.8l2.941-16.68,8.1,16.68h12.6l13.381-16.68-2.941,16.68h13.8l5.766-32.7h-15.18Zm42-1.38a32.7,32.7,0,0,0-12.138,2.31,28.032,28.032,0,0,0-9.821,6.36,16.939,16.939,0,0,0-4.862,9.03,12.247,12.247,0,0,0,1.688,8.97,17.088,17.088,0,0,0,7.608,6.36,27.007,27.007,0,0,0,11.293,2.31,31.675,31.675,0,0,0,12.073-2.28,25.155,25.155,0,0,0,9.275-6.33,17.86,17.86,0,0,0,4.563-9.03,13.475,13.475,0,0,0-1.338-9.09,15.064,15.064,0,0,0-7.043-6.33,26.163,26.163,0,0,0-11.3-2.28h0Zm-4.718,26.76a9.589,9.589,0,0,1-4.406-1.05,7.138,7.138,0,0,1-3.145-3.09,7.5,7.5,0,0,1-.572-4.92,9.854,9.854,0,0,1,2.307-4.92,11.845,11.845,0,0,1,4.235-3.09,12.011,12.011,0,0,1,4.776-1.05,8.891,8.891,0,0,1,4.29,1.02,6.181,6.181,0,0,1,2.785,3.09,8.577,8.577,0,0,1,.387,4.95,10.947,10.947,0,0,1-2.134,4.95,10.288,10.288,0,0,1-3.874,3.09,11.145,11.145,0,0,1-4.649,1.02h0Zm26.275-8.82a13.069,13.069,0,0,0,1.437,9.03,15.765,15.765,0,0,0,7.128,6.36,25.394,25.394,0,0,0,11.054,2.31,29.983,29.983,0,0,0,10.748-1.92,25.744,25.744,0,0,0,8.57-5.22,17.993,17.993,0,0,0,4.9-7.38h-13.8a9.611,9.611,0,0,1-3.512,4.26,9.462,9.462,0,0,1-5.445,1.62,6.9,6.9,0,0,1-5.851-2.55,7.99,7.99,0,0,1-1.251-6.51,10.834,10.834,0,0,1,3.617-6.57,10.109,10.109,0,0,1,6.8-2.49,6.957,6.957,0,0,1,4.814,1.62,6.1,6.1,0,0,1,2,4.32h13.8a14.083,14.083,0,0,0-2.378-7.62,14.517,14.517,0,0,0-6.5-5.13,25.975,25.975,0,0,0-10.267-1.83,31.418,31.418,0,0,0-11.922,2.28,25.388,25.388,0,0,0-9.336,6.33,17.85,17.85,0,0,0-4.6,9.09h0Zm49.3-16.56-1.8,10.2H666.6l-3.967,22.5h13.8l3.967-22.5h14.94l1.8-10.2h-43.86Zm72.9,8.52h-13.2l1.442-8.52h-13.8l-5.585,32.7h26.94l0.01-.06q0.77,0.06,2.45.06,8.039,0,11.914-3.09a13.833,13.833,0,0,0,4.88-8.79l0.032-.18q1.058-6-2.573-9.06t-12.51-3.06h0Zm-4.5,16.32h-1.5q-1.068-.06-10.009-0.06l1.453-8.58H722.9a35.612,35.612,0,0,1,3.873.15,3.022,3.022,0,0,1,2,1.05,3.616,3.616,0,0,1,.4,3,5.087,5.087,0,0,1-1.429,3,4.833,4.833,0,0,1-2.432,1.2,21.915,21.915,0,0,1-3.642.24h0Zm-410.386,42.68a50.445,50.445,0,0,0-10,1.05,25.62,25.62,0,0,0-9.276,3.78,10.756,10.756,0,0,0-4.885,7.29H301a4.873,4.873,0,0,1,3.015-3.66,14.606,14.606,0,0,1,5.952-1.26,15.462,15.462,0,0,1,5.626.93q2.385,0.93,2.1,2.91l-0.138.78a2.2,2.2,0,0,1-1.432,1.65,16.92,16.92,0,0,1-4.545.6q-3.385.15-11.906,0.15-13.262,0-15.049,10.14-1.132,6.42,3.074,8.43a20.092,20.092,0,0,0,8.766,2.01,44.3,44.3,0,0,0,10.752-1.26q5.052-1.26,7.028-3.96l-0.053.3,0.269,4.26h13.08l3.724-21.12q1.279-7.26-5.052-10.14a35.751,35.751,0,0,0-14.912-2.88h0Zm-5.492,26.04q-3.84,0-5.4-.87a2.607,2.607,0,0,1-1.42-2.67,3.485,3.485,0,0,1,2.6-2.64,26.291,26.291,0,0,1,7.358-.72,21.6,21.6,0,0,0,7.429-.96l-0.148.84a8.64,8.64,0,0,1-3.349,5.04,11.478,11.478,0,0,1-7.069,1.98h0Zm73.788-7.08q1.083-6.48-3.178-10.05t-12.3-3.57a64.469,64.469,0,0,0-7.819.45,25.957,25.957,0,0,0-6.853,1.77q3.468-6.06,11.629-6.06a83.234,83.234,0,0,0,11.7-.69,18.481,18.481,0,0,0,8.281-3.24,11.568,11.568,0,0,0,4.461-7.77l-12.17-.06q-0.264,1.5-3.838,1.86a42.559,42.559,0,0,1-6.132.24h-0.12a52.566,52.566,0,0,0-12.759,1.41,21.139,21.139,0,0,0-10.271,6.36q-4.653,4.95-6.378,14.73-0.318,1.8-.416,2.7-0.5,9.66,4.636,13.86t16.3,4.2q10.02,0,16.873-3.99a16.764,16.764,0,0,0,8.333-12.03l0.01-.06Zm-22.76,6.24a42.945,42.945,0,0,1-5.028-.24,6.366,6.366,0,0,1-3.593-1.74q-1.624-1.5-1.033-4.86a11.978,11.978,0,0,1,.293-1.32,5.937,5.937,0,0,1,3.463-3.48,21.154,21.154,0,0,1,7.8-1.2,9.862,9.862,0,0,1,5.68,1.47q2.14,1.47,1.506,5.07-0.678,3.84-3.385,5.07a13.635,13.635,0,0,1-5.706,1.23h0Zm52.793-25.14a32.7,32.7,0,0,0-12.138,2.31,28.022,28.022,0,0,0-9.821,6.36,16.939,16.939,0,0,0-4.862,9.03,12.247,12.247,0,0,0,1.687,8.97,17.1,17.1,0,0,0,7.609,6.36,26.846,26.846,0,0,0,11.293,2.31,31.667,31.667,0,0,0,12.072-2.28,25.151,25.151,0,0,0,9.276-6.33,17.868,17.868,0,0,0,4.563-9.03,13.481,13.481,0,0,0-1.338-9.09,15.067,15.067,0,0,0-7.044-6.33,26.155,26.155,0,0,0-11.3-2.28h0Zm-4.719,26.76a9.582,9.582,0,0,1-4.4-1.05,7.138,7.138,0,0,1-3.145-3.09,7.5,7.5,0,0,1-.572-4.92,9.854,9.854,0,0,1,2.307-4.92,11.845,11.845,0,0,1,4.235-3.09,12,12,0,0,1,4.775-1.05,8.888,8.888,0,0,1,4.29,1.02,6.187,6.187,0,0,1,2.786,3.09,8.586,8.586,0,0,1,.387,4.95,10.958,10.958,0,0,1-2.134,4.95,10.3,10.3,0,0,1-3.875,3.09,11.141,11.141,0,0,1-4.649,1.02h0Zm41.331-13.56,2.084-11.82H435l-5.766,32.7h13.32l2.148-12.18h16.74l-2.148,12.18h13.74l5.766-32.7h-13.74l-2.084,11.82h-16.74Zm49.724-11.82h-13.38l-5.766,32.7h13.38l20.793-18.9-3.333,18.9h13.8l5.766-32.7h-13.8l-20.782,18.84Zm81.54,0-19.444,23.16-11.276-23.16H531l-5.766,32.7h13.8l2.941-16.68,8.1,16.68h12.6l13.381-16.68-2.941,16.68h13.8l5.766-32.7H577.5Zm61.234,16.14h0l0.052-.3a13.331,13.331,0,0,0-8.071-15.3,27.161,27.161,0,0,0-11.41-2.16,34.283,34.283,0,0,0-12.3,2.19,25.139,25.139,0,0,0-9.561,6.24,17.94,17.94,0,0,0-4.734,9.33,13.12,13.12,0,0,0,1.485,9.27,15.7,15.7,0,0,0,7.354,6.27,27.831,27.831,0,0,0,11.489,2.22q10.62,0,17.235-3.66a14.629,14.629,0,0,0,7.843-10.62h-13.74a6.883,6.883,0,0,1-3.565,5.07,12.894,12.894,0,0,1-6.38,1.65q-4.2,0-6.2-2.43a8.517,8.517,0,0,1-1.755-6.21h31.98Zm-20.72-10.44q3.84,0,5.524,1.68a6.764,6.764,0,0,1,1.815,4.68h-17.4a9.929,9.929,0,0,1,10.061-6.36h0Zm37.741,6.12,2.084-11.82h-13.32l-5.765,32.7h13.32l2.147-12.18h16.74l-2.147,12.18h13.74l5.765-32.7h-13.74l-2.084,11.82h-16.74Zm36.164-11.82-1.8,10.2h15.12l-3.967,22.5h13.8l3.967-22.5h14.94l1.8-10.2h-43.86Zm69.785-1.38a32.7,32.7,0,0,0-12.138,2.31,28.027,28.027,0,0,0-9.822,6.36,16.944,16.944,0,0,0-4.861,9.03,12.247,12.247,0,0,0,1.687,8.97,17.085,17.085,0,0,0,7.609,6.36,26.846,26.846,0,0,0,11.293,2.31,31.667,31.667,0,0,0,12.072-2.28,25.151,25.151,0,0,0,9.276-6.33,17.868,17.868,0,0,0,4.563-9.03,13.481,13.481,0,0,0-1.338-9.09,15.067,15.067,0,0,0-7.044-6.33,26.158,26.158,0,0,0-11.3-2.28h0Zm-4.719,26.76a9.582,9.582,0,0,1-4.4-1.05,7.138,7.138,0,0,1-3.145-3.09,7.491,7.491,0,0,1-.572-4.92,9.854,9.854,0,0,1,2.307-4.92,11.85,11.85,0,0,1,4.234-3.09,12.011,12.011,0,0,1,4.776-1.05,8.891,8.891,0,0,1,4.29,1.02,6.181,6.181,0,0,1,2.785,3.09,8.577,8.577,0,0,1,.388,4.95,10.958,10.958,0,0,1-2.134,4.95,10.3,10.3,0,0,1-3.875,3.09,11.141,11.141,0,0,1-4.649,1.02h0Zm39.571-3.24a7.664,7.664,0,0,1,.25-1.08Zm26.233-6.54a9.334,9.334,0,0,0,4.286-2.7,9.57,9.57,0,0,0,2.055-4.68l0.032-.18a5.5,5.5,0,0,0-2.223-5.94q-2.91-2.04-8.97-2.04h-0.12l0.011-.06h-30.78l-5.776,32.76h29.04q8.66-.12,13.326-2.25a9.009,9.009,0,0,0,5.512-6.93l0.021-.12q0.6-3.42-1.024-5.25a9.657,9.657,0,0,0-5.39-2.61h0Zm-13.874-2.64h-0.18q-0.121,0-1.7-.03t-8.785-.03l1.047-5.94h10.68a27.974,27.974,0,0,1,3.364.15,3.012,3.012,0,0,1,1.782.78,2.168,2.168,0,0,1,.4,2.01,3.244,3.244,0,0,1-1.161,2.16,4.117,4.117,0,0,1-2.057.78q-1.163.12-3.381,0.12h0Zm-0.768,12.18h-12.06l1.1-6.24h12.06a40.251,40.251,0,0,1,4.023.15,3.954,3.954,0,0,1,2.167.81,2.153,2.153,0,0,1,.519,2.16,3.053,3.053,0,0,1-1.281,2.16,5.483,5.483,0,0,1-2.453.81q-1.437.15-4.076,0.15h0Z" transform="translate(-284.375 -4914.94)"/>
</svg>
