<svg xmlns="http://www.w3.org/2000/svg" width="575.344" height="138.47" viewBox="0 0 575.344 138.47">
  <defs>
    <style>
      .cls-1 {
        fill: #f7f7f7;
        fill-rule: evenodd;
      }
    </style>
  </defs>
  <path id="Шинкаренко_Георгий" data-name="Шинкаренко  Георгий" class="cls-1" d="M349.536,2995.54h-15.99l-6.441,36.53H306.76l6.441-36.53H297.146l-8.481,48.1h88.79l8.481-48.1h-15.99l-6.441,36.53H343.1Zm56.33,12.68h-14.5l-6.246,35.42h14.5l22.526-20.47-3.611,20.47h14.95l6.246-35.42h-14.95l-22.513,20.41Zm52.733,12.8,2.257-12.8h-14.43l-6.246,35.42h14.43l2.327-13.19h18.135l-2.327,13.19H487.63l6.246-35.42H478.991l-2.257,12.8H458.6Zm89.1-12.8H530.082l-16.84,12.93,2.28-12.93h-14.95l-6.246,35.42h14.95l2.9-16.44,13.676,16.44h17.42L528.2,3024.08Zm27.51-1.56a54.542,54.542,0,0,0-10.829,1.14,27.638,27.638,0,0,0-10.049,4.09,11.661,11.661,0,0,0-5.292,7.9h15.015a5.285,5.285,0,0,1,3.267-3.97,15.873,15.873,0,0,1,6.448-1.36,16.576,16.576,0,0,1,6.095,1.01q2.583,1.005,2.272,3.15l-0.15.84a2.374,2.374,0,0,1-1.551,1.79,18.189,18.189,0,0,1-4.923.65q-3.669.165-12.9,0.16-14.365,0-16.3,10.99-1.226,6.96,3.331,9.13a21.786,21.786,0,0,0,9.5,2.18,48,48,0,0,0,11.648-1.37q5.472-1.365,7.614-4.29l-0.058.33,0.292,4.61H592.8l4.034-22.88q1.386-7.86-5.473-10.98a38.731,38.731,0,0,0-16.155-3.12h0Zm-5.949,28.21c-2.774,0-4.723-.32-5.846-0.94a2.834,2.834,0,0,1-1.538-2.9,3.783,3.783,0,0,1,2.811-2.86,28.479,28.479,0,0,1,7.971-.78,23.238,23.238,0,0,0,8.049-1.04l-0.161.91a9.357,9.357,0,0,1-3.629,5.46,12.433,12.433,0,0,1-7.657,2.15h0Zm82.143-8.39,0.034-.19a19.721,19.721,0,0,0-.579-9.62,13.377,13.377,0,0,0-4.885-6.76,14.04,14.04,0,0,0-8.437-2.47q-11.654-.255-18.1,5.33l-0.043-4.55H605.676l-8.423,47.77H612.2l2.865-16.25q4.63,5.07,15.876,5.07a18,18,0,0,0,9.292-2.56,23.948,23.948,0,0,0,11.119-15.51h0Zm-26.373,9.49a7.366,7.366,0,0,1-6.246-2.73c-1.391-1.82-1.819-4.24-1.284-7.28l0.023-.13a11.584,11.584,0,0,1,2.044-4.77,12.159,12.159,0,0,1,3.946-3.58,9.972,9.972,0,0,1,5.013-1.33q4.68,0,6.606,2.89a10.244,10.244,0,0,1,1.268,7.38,12.656,12.656,0,0,1-3.82,6.73,10.592,10.592,0,0,1-7.55,2.82h0Zm81.436-10.27h0l0.057-.32a14.449,14.449,0,0,0-8.744-16.58,29.428,29.428,0,0,0-12.361-2.34,36.968,36.968,0,0,0-13.321,2.38,27.157,27.157,0,0,0-10.357,6.76,19.412,19.412,0,0,0-5.129,10.1,14.237,14.237,0,0,0,1.609,10.05,17.019,17.019,0,0,0,7.967,6.79,30.2,30.2,0,0,0,12.446,2.4q11.505,0,18.671-3.96a15.843,15.843,0,0,0,8.5-11.51H690.914a7.489,7.489,0,0,1-3.861,5.5,13.986,13.986,0,0,1-6.913,1.78c-3.033,0-5.273-.87-6.718-2.63a9.227,9.227,0,0,1-1.9-6.73h34.645Zm-22.446-11.31q4.159,0,5.984,1.82a7.348,7.348,0,0,1,1.966,5.07h-18.85a10.757,10.757,0,0,1,10.9-6.89h0Zm43.486,6.63,2.258-12.8h-14.43l-6.247,35.42h14.43l2.327-13.19h18.135l-2.327,13.19h14.885l6.247-35.42H747.9l-2.258,12.8H727.5Zm89.1-12.8H798.987l-16.84,12.93,2.28-12.93h-14.95l-6.246,35.42h14.95l2.9-16.44,13.676,16.44h17.42L797.1,3024.08Zm25.809-1.5a35.394,35.394,0,0,0-13.149,2.51,30.185,30.185,0,0,0-10.64,6.89,18.318,18.318,0,0,0-5.267,9.78,13.288,13.288,0,0,0,1.828,9.72,18.561,18.561,0,0,0,8.243,6.89,29.214,29.214,0,0,0,12.234,2.5,34.252,34.252,0,0,0,13.079-2.47,27.237,27.237,0,0,0,10.048-6.86,19.315,19.315,0,0,0,4.943-9.78,14.61,14.61,0,0,0-1.449-9.85,16.373,16.373,0,0,0-7.63-6.86,28.444,28.444,0,0,0-12.24-2.47h0Zm-5.111,28.99a10.484,10.484,0,0,1-4.773-1.13,7.762,7.762,0,0,1-3.407-3.35,8.127,8.127,0,0,1-.62-5.33,10.67,10.67,0,0,1,2.5-5.33,13.357,13.357,0,0,1,9.761-4.49,9.6,9.6,0,0,1,4.647,1.11,6.7,6.7,0,0,1,3.018,3.35,9.279,9.279,0,0,1,.419,5.36,11.826,11.826,0,0,1-2.311,5.36,11.146,11.146,0,0,1-4.2,3.35,12.015,12.015,0,0,1-5.036,1.1h0Zm-540.154,37.83-8.481,48.1H304.72l6.476-36.72h30.615l2-11.38h-46.67Zm88.413,30.16h0l0.057-.32a14.448,14.448,0,0,0-8.745-16.58,29.42,29.42,0,0,0-12.36-2.34,36.964,36.964,0,0,0-13.321,2.38,27.149,27.149,0,0,0-10.357,6.76,19.4,19.4,0,0,0-5.129,10.1,14.237,14.237,0,0,0,1.608,10.05,17.019,17.019,0,0,0,7.967,6.79,30.207,30.207,0,0,0,12.446,2.4q11.5,0,18.672-3.96a15.841,15.841,0,0,0,8.5-11.51H370.008a7.484,7.484,0,0,1-3.861,5.5,13.982,13.982,0,0,1-6.912,1.78c-3.034,0-5.273-.87-6.719-2.63a9.227,9.227,0,0,1-1.9-6.73H385.26Zm-22.447-11.31q4.159,0,5.984,1.82a7.354,7.354,0,0,1,1.967,5.07h-18.85a10.754,10.754,0,0,1,10.9-6.89h0Zm56.278-7.67a35.394,35.394,0,0,0-13.149,2.51,30.176,30.176,0,0,0-10.64,6.89,18.318,18.318,0,0,0-5.267,9.78,13.283,13.283,0,0,0,1.828,9.72,18.561,18.561,0,0,0,8.243,6.89,29.214,29.214,0,0,0,12.234,2.5,34.243,34.243,0,0,0,13.078-2.47,27.232,27.232,0,0,0,10.049-6.86,19.315,19.315,0,0,0,4.943-9.78,14.616,14.616,0,0,0-1.449-9.85,16.37,16.37,0,0,0-7.631-6.86,28.436,28.436,0,0,0-12.239-2.47h0Zm-5.112,28.99a10.48,10.48,0,0,1-4.772-1.13,7.762,7.762,0,0,1-3.407-3.35,8.121,8.121,0,0,1-.62-5.33,10.67,10.67,0,0,1,2.5-5.33,13.357,13.357,0,0,1,9.761-4.49,9.6,9.6,0,0,1,4.647,1.11,6.7,6.7,0,0,1,3.018,3.35,9.279,9.279,0,0,1,.419,5.36,11.836,11.836,0,0,1-2.311,5.36,11.153,11.153,0,0,1-4.2,3.35,12.016,12.016,0,0,1-5.037,1.1h0Zm80.927-9.23,0.035-.19a19.721,19.721,0,0,0-.579-9.62,13.377,13.377,0,0,0-4.885-6.76,14.042,14.042,0,0,0-8.437-2.47q-11.655-.255-18.1,5.33l-0.043-4.55H449.481l-8.424,47.77h14.95l2.865-16.25q4.632,5.07,15.877,5.07a18,18,0,0,0,9.292-2.56,23.957,23.957,0,0,0,11.119-15.51h0Zm-26.372,9.49a7.369,7.369,0,0,1-6.247-2.73c-1.391-1.82-1.818-4.24-1.283-7.28l0.022-.13a11.586,11.586,0,0,1,2.045-4.77,12.156,12.156,0,0,1,3.945-3.58,9.975,9.975,0,0,1,5.013-1.33q4.68,0,6.607,2.89a10.249,10.249,0,0,1,1.268,7.38,12.662,12.662,0,0,1-3.82,6.73,10.594,10.594,0,0,1-7.55,2.82h0Zm35.638-27.75-6.246,35.42H514.15l4.459-25.28h18.655l1.787-10.14h-34.58Zm54.99,0h-14.5l-6.246,35.42h14.5l22.525-20.47-3.61,20.47h14.95l6.246-35.42h-14.95l-22.514,20.41Zm65.127-.72a20.307,20.307,0,0,0,11.187-2.99,12.7,12.7,0,0,0,5.741-8.97H633a6.429,6.429,0,0,1-2.548,4.13,7.986,7.986,0,0,1-4.96,1.59,5.537,5.537,0,0,1-4.27-1.59,4.575,4.575,0,0,1-1.027-4.13h-8.515q-1.055,5.985,2.579,8.97,3.632,3,10.328,2.99h0Zm-10.072.72h-14.5l-6.246,35.42h14.5l22.525-20.47-3.61,20.47h14.95l6.246-35.42h-14.95l-22.514,20.41Z" transform="translate(-288.656 -2995.53)"/>
</svg>
