<svg xmlns="http://www.w3.org/2000/svg" width="513.781" height="51.19" viewBox="0 0 513.781 51.19">
  <defs>
    <style>
      .cls-1 {
        fill: #100f13;
        fill-rule: evenodd;
      }
    </style>
  </defs>
  <path id="Дисциплины" class="cls-1" d="M348.841,1604.07h-40.5a66.741,66.741,0,0,1-8.015,22.32q-2.859,4.98-7.21,11.28h-4.44l-2.919,16.56h13.86l1.015-5.76,32.51,0.06-1,5.7H346l2.919-16.56h-5.94Zm-15.623,10.68-4.042,22.92h-21.9q4.354-6.66,7.236-11.94a71.448,71.448,0,0,0,4.857-11.04Zm35.4,1.02h-13.38l-5.766,32.7h13.38l20.793-18.9-3.333,18.9h13.8l5.766-32.7h-13.8L365.3,1634.61Zm30.62,16.56a13.069,13.069,0,0,0,1.437,9.03,15.773,15.773,0,0,0,7.129,6.36,25.389,25.389,0,0,0,11.053,2.31,29.984,29.984,0,0,0,10.749-1.92,25.754,25.754,0,0,0,8.57-5.22,17.993,17.993,0,0,0,4.9-7.38h-13.8a9.611,9.611,0,0,1-3.512,4.26,9.462,9.462,0,0,1-5.445,1.62,6.9,6.9,0,0,1-5.851-2.55,7.99,7.99,0,0,1-1.252-6.51,10.835,10.835,0,0,1,3.618-6.57,10.109,10.109,0,0,1,6.8-2.49,6.957,6.957,0,0,1,4.814,1.62,6.1,6.1,0,0,1,2,4.32h13.8a14.083,14.083,0,0,0-2.378-7.62,14.517,14.517,0,0,0-6.5-5.13,25.978,25.978,0,0,0-10.267-1.83,31.418,31.418,0,0,0-11.922,2.28,25.379,25.379,0,0,0-9.336,6.33,17.859,17.859,0,0,0-4.6,9.09h0Zm80.56-16.56-4.072,23.1h-17.1l4.072-23.1H448.9l-5.766,32.7h36.48l-1.2,6.78h13.8l2.889-16.38h-5.58l4.072-23.1H479.8Zm34.86,0h-13.38l-5.766,32.7h13.38l20.793-18.9-3.333,18.9h13.8l5.766-32.7h-13.8l-20.782,18.84Zm28.674,32.7h13.8l4.084-23.16H576.7l-4.084,23.16h13.8l5.766-32.7H549.1Zm59.265-32.58-0.349,1.98q-1.112,6.3-1.892,9.54a35.192,35.192,0,0,1-2.242,6.42,20.119,20.119,0,0,1-1.521,2.67,4.181,4.181,0,0,1-1.793,1.32,9.257,9.257,0,0,1-3.48.51l-1.8,10.2a20.9,20.9,0,0,0,2.438.12,26.174,26.174,0,0,0,8.419-1.47,15.593,15.593,0,0,0,7.47-5.61,21.048,21.048,0,0,0,3.04-5.67q1.257-3.39,3.149-10.71h12.24l-4.106,23.28h13.8l5.745-32.58H602.6Zm55.641-.12h-13.38l-5.765,32.7h13.379l20.793-18.9-3.332,18.9h13.8l5.766-32.7H675.7l-20.781,18.84Zm45.676,11.82L706,1615.77h-13.32l-5.766,32.7h13.32l2.148-12.18h16.74l-2.148,12.18h13.74l5.766-32.7h-13.74l-2.084,11.82h-16.74Zm61.3-3.3h-13.2l1.442-8.52h-13.8l-5.586,32.7h26.941l0.01-.06q0.769,0.06,2.45.06,8.039,0,11.914-3.09a13.833,13.833,0,0,0,4.88-8.79l0.032-.18q1.058-6-2.573-9.06t-12.51-3.06h0Zm28.557,24.18,5.765-32.7h-13.8l-5.765,32.7h13.8Zm-33.055-7.86h-1.5q-1.068-.06-10.009-0.06l1.453-8.58h11.28a35.612,35.612,0,0,1,3.873.15,3.022,3.022,0,0,1,2,1.05,3.619,3.619,0,0,1,.4,3,5.087,5.087,0,0,1-1.429,3,4.833,4.833,0,0,1-2.432,1.2,21.915,21.915,0,0,1-3.642.24h0Z" transform="translate(-285.75 -1604.06)"/>
</svg>
