<svg xmlns="http://www.w3.org/2000/svg" width="436.69" height="140.88" viewBox="0 0 436.69 140.88">
  <defs>
    <style>
      .cls-1 {
        fill: #f7f7f7;
        fill-rule: evenodd;
      }
    </style>
  </defs>
  <path id="Руслан_Булгучев" data-name="Руслан Булгучев" class="cls-1" d="M1340.54,3952.54H1304.2l-8.48,48.1h16.06l2.73-15.53h20.87q9.225,0,15.31-4.26a17.9,17.9,0,0,0,7.46-12.06l0.04-.26a12.576,12.576,0,0,0-1.09-8.35,13.041,13.041,0,0,0-6.23-5.62,24.18,24.18,0,0,0-10.33-2.02h0Zm-6.6,21.19h-17.42l1.77-10.01q7.47,0,10.73-.03c2.17-.02,3.68-0.03,4.55-0.03h2.15a35.288,35.288,0,0,1,4.89.26,4.047,4.047,0,0,1,2.62,1.36c0.61,0.74.77,1.93,0.47,3.58a5.436,5.436,0,0,1-1.71,3.44,5.63,5.63,0,0,1-2.98,1.24,48.608,48.608,0,0,1-5.07.19h0Zm69.88-8.51-16.45,26.19-7.47-26.19h-15.99l11.99,35.62a2.941,2.941,0,0,1,.1.91,2.03,2.03,0,0,1-1.66,1.3,20.75,20.75,0,0,1-5.22.45l-2.1,11.9a73.164,73.164,0,0,0,14.03-1.24q6.36-1.23,9.27-5.52l29.49-43.42h-15.99Zm12.9,17.94a14.127,14.127,0,0,0,1.55,9.78,17.068,17.068,0,0,0,7.72,6.89,27.358,27.358,0,0,0,11.98,2.5,32.346,32.346,0,0,0,11.64-2.08,27.881,27.881,0,0,0,9.29-5.65,19.511,19.511,0,0,0,5.31-8h-14.95a10.412,10.412,0,0,1-3.81,4.62,10.245,10.245,0,0,1-5.9,1.75,7.463,7.463,0,0,1-6.33-2.76,8.661,8.661,0,0,1-1.36-7.05,11.766,11.766,0,0,1,3.92-7.12,10.942,10.942,0,0,1,7.37-2.7,7.537,7.537,0,0,1,5.21,1.76,6.638,6.638,0,0,1,2.17,4.68h14.95a15.267,15.267,0,0,0-2.58-8.26,15.759,15.759,0,0,0-7.05-5.55,27.981,27.981,0,0,0-11.12-1.99,34.135,34.135,0,0,0-12.91,2.47,27.617,27.617,0,0,0-10.12,6.86,19.362,19.362,0,0,0-4.98,9.85h0Zm64.95-17.81-0.38,2.14q-1.2,6.825-2.05,10.34a37.076,37.076,0,0,1-2.43,6.95,22.935,22.935,0,0,1-1.64,2.9,4.6,4.6,0,0,1-1.95,1.43,10.168,10.168,0,0,1-3.77.55l-1.94,11.05a21.891,21.891,0,0,0,2.64.13,28.451,28.451,0,0,0,9.12-1.59,16.959,16.959,0,0,0,8.09-6.08,22.629,22.629,0,0,0,3.29-6.14q1.365-3.675,3.41-11.61h13.26l-4.44,25.22h14.95l6.22-35.29h-42.38Zm72.9-1.69a54.493,54.493,0,0,0-10.82,1.14,27.528,27.528,0,0,0-10.05,4.09,11.662,11.662,0,0,0-5.3,7.9h15.02a5.273,5.273,0,0,1,3.27-3.97,15.838,15.838,0,0,1,6.44-1.36,16.626,16.626,0,0,1,6.1,1.01q2.58,1.005,2.27,3.15l-0.15.84a2.373,2.373,0,0,1-1.55,1.79,18.223,18.223,0,0,1-4.92.65q-3.675.165-12.9,0.16-14.37,0-16.3,10.99-1.23,6.96,3.33,9.13a21.754,21.754,0,0,0,9.49,2.18,48,48,0,0,0,11.65-1.37q5.475-1.365,7.61-4.29l-0.05.33,0.29,4.61h14.17l4.03-22.88q1.4-7.86-5.47-10.98a38.762,38.762,0,0,0-16.16-3.12h0Zm-5.95,28.21c-2.77,0-4.72-.32-5.84-0.94a2.829,2.829,0,0,1-1.54-2.9,3.8,3.8,0,0,1,2.81-2.86,28.524,28.524,0,0,1,7.97-.78,23.23,23.23,0,0,0,8.05-1.04l-0.16.91a9.358,9.358,0,0,1-3.63,5.46,12.436,12.436,0,0,1-7.66,2.15h0Zm48.6-13.85,2.25-12.8h-14.43l-6.24,35.42h14.43l2.32-13.19h18.14l-2.33,13.19h14.89l6.24-35.42h-14.88l-2.26,12.8h-18.13Zm-362.99,69.29h-17.81l1.08-6.11h40.23l1.87-10.59h-55.31l-8.48,48.1h34.9q12.69-.06,19.14-4.42a16.938,16.938,0,0,0,7.7-11.38l0.03-.19q0.915-5.2-.99-8.58c-1.27-2.25-3.72-3.96-7.36-5.1s-8.63-1.73-15-1.73h0Zm-4.13,20.09h-1.62q-3.36-.135-15.58-0.13l1.79-10.14h17.23a45.794,45.794,0,0,1,5.89.29,4.748,4.748,0,0,1,3.01,1.37,3.7,3.7,0,0,1,.57,3.21,5.287,5.287,0,0,1-3.17,4.33c-1.73.71-4.43,1.07-8.12,1.07h0Zm71.74-24.18-16.45,26.19-7.47-26.19h-15.99l11.98,35.62a2.654,2.654,0,0,1,.1.91,2.014,2.014,0,0,1-1.66,1.3,20.6,20.6,0,0,1-5.21.45l-2.1,11.9a73.239,73.239,0,0,0,14.03-1.24q6.36-1.23,9.26-5.52l29.5-43.42h-15.99Zm23.51,0.13-0.38,2.14q-1.2,6.825-2.05,10.34a38.56,38.56,0,0,1-2.43,6.95,21.541,21.541,0,0,1-1.65,2.9,4.56,4.56,0,0,1-1.94,1.43,10.2,10.2,0,0,1-3.77.55l-1.95,11.05a21.891,21.891,0,0,0,2.64.13,28.358,28.358,0,0,0,9.12-1.59,16.937,16.937,0,0,0,8.1-6.08,23.19,23.19,0,0,0,3.29-6.14q1.365-3.675,3.41-11.61H1351l-4.45,25.22h14.95l6.23-35.29h-42.38Zm49.03-.13-6.25,35.42h15.93l4.46-25.28h18.65l1.79-10.14h-34.58Zm79.23,0-16.44,26.19-7.48-26.19H1413.7l11.99,35.62a2.654,2.654,0,0,1,.1.91,2.014,2.014,0,0,1-1.66,1.3,20.75,20.75,0,0,1-5.22.45l-2.09,11.9a73.239,73.239,0,0,0,14.03-1.24q6.36-1.23,9.26-5.52l29.49-43.42h-15.99Zm53.56,0-1.31,7.47a36.271,36.271,0,0,1-1.49,6.05,7,7,0,0,1-2.85,3.41,11.1,11.1,0,0,1-6.02,1.33q-3.765,0-5.42-1.33a4.912,4.912,0,0,1-1.82-3.64,25.457,25.457,0,0,1,.48-6.08l1.27-7.21h-14.95l-1.21,6.89q-3.6,20.415,17.4,20.41,7.275,0,11.82-4.03l-2.14,12.15h14.95l6.24-35.42h-14.95Zm67.38,17.48h0l0.06-.32a14.441,14.441,0,0,0-8.75-16.58,29.376,29.376,0,0,0-12.36-2.34,36.986,36.986,0,0,0-13.32,2.38,27.13,27.13,0,0,0-10.35,6.76,19.369,19.369,0,0,0-5.13,10.1,14.2,14.2,0,0,0,1.61,10.05,16.986,16.986,0,0,0,7.96,6.79,30.256,30.256,0,0,0,12.45,2.4q11.505,0,18.67-3.96a15.849,15.849,0,0,0,8.5-11.51H1559a7.467,7.467,0,0,1-3.86,5.5,13.977,13.977,0,0,1-6.91,1.78c-3.04,0-5.27-.87-6.72-2.63a9.2,9.2,0,0,1-1.9-6.73h34.64Zm-22.44-11.31q4.155,0,5.98,1.82a7.355,7.355,0,0,1,1.97,5.07h-18.85a10.748,10.748,0,0,1,10.9-6.89h0Zm41.58,17.81a8.026,8.026,0,0,1,.27-1.17Zm28.41-7.08a10.148,10.148,0,0,0,4.65-2.93,10.279,10.279,0,0,0,2.22-5.07l0.04-.19c0.5-2.82-.31-4.96-2.41-6.44s-5.34-2.21-9.72-2.21h-0.13l0.01-.06h-33.34l-6.26,35.49h31.46q9.39-.135,14.44-2.44a9.755,9.755,0,0,0,5.97-7.51l0.02-.13q0.66-3.705-1.11-5.68-1.755-1.995-5.84-2.83h0Zm-15.03-2.86h-0.19c-0.09,0-.7-0.01-1.85-0.03s-4.31-.04-9.51-0.04l1.13-6.43h11.57a29.947,29.947,0,0,1,3.64.16,3.231,3.231,0,0,1,1.93.85,2.3,2.3,0,0,1,.43,2.17,3.506,3.506,0,0,1-1.25,2.34,4.474,4.474,0,0,1-2.23.85c-0.84.09-2.06,0.13-3.67,0.13h0Zm-0.83,13.19h-13.06l1.19-6.76h13.07a42.541,42.541,0,0,1,4.35.17,4.283,4.283,0,0,1,2.35.87,2.33,2.33,0,0,1,.56,2.34,3.285,3.285,0,0,1-1.38,2.34,5.945,5.945,0,0,1-2.66.88c-1.04.11-2.51,0.16-4.42,0.16h0Z" transform="translate(-1195.81 -3952.53)"/>
</svg>
